<svg xmlns="http://www.w3.org/2000/svg"><symbol id="ellipsis-horizontal" width="16" height="16" fill="currentColor" aria-label="No Priority" viewBox="0 0 14 14"><rect width="2" height="2" rx="1" transform="matrix(-1 0 0 1 5 6)"/><rect width="2" height="2" rx="1" transform="matrix(-1 0 0 1 8 6)"/><rect width="2" height="2" rx="1" transform="matrix(-1 0 0 1 11 6)"/></symbol><symbol id="priority-urgent" width="16" height="16" fill="currentColor" viewBox="-1 -1 16 16"><path d="M2 0a2 2 0 00-2 2v10a2 2 0 002 2h10a2 2 0 002-2V2a2 2 0 00-2-2H2zm3.914 3h1.738L7.5 8.602H6.07L5.914 3zm1.809 7.164a.95.95 0 01-.938.938.934.934 0 110-1.867c.5 0 .934.417.938.93z" clipRule="evenodd" fillRule="evenodd"/></symbol><symbol id="priority-high" width="16" height="16" fill="currentColor" viewBox="0 0 16 16"><rect width="3" height="6" x="1" y="8" rx="1"/><rect width="3" height="9" x="6" y="5" rx="1"/><rect width="3" height="12" x="11" y="2" rx="1"/></symbol><symbol id="priority-medium" width="16" height="16" fill="currentColor" viewBox="0 0 16 16"><rect width="3" height="6" x="1" y="8" rx="1"/><rect width="3" height="9" x="6" y="5" rx="1"/><rect width="3" height="12" x="11" y="2" fill-opacity=".4" rx="1"/></symbol><symbol id="priority-low" width="16" height="16" fill="currentColor" viewBox="0 0 16 16"><rect width="3" height="6" x="1" y="8" rx="1"/><rect width="3" height="9" x="6" y="5" fill-opacity=".4" rx="1"/><rect width="3" height="12" x="11" y="2" fill-opacity=".4" rx="1"/></symbol><symbol id="list" fill="#6B6F76" viewBox="0 0 16 16"><path d="M1 1.8C1 1.51997 1 1.37996 1.0545 1.273C1.10243 1.17892 1.17892 1.10243 1.273 1.0545C1.37996 1 1.51997 1 1.8 1H14.2C14.48 1 14.62 1 14.727 1.0545C14.8211 1.10243 14.8976 1.17892 14.9455 1.273C15 1.37996 15 1.51997 15 1.8V2.2C15 2.48003 15 2.62004 14.9455 2.727C14.8976 2.82108 14.8211 2.89757 14.727 2.9455C14.62 3 14.48 3 14.2 3H1.8C1.51997 3 1.37996 3 1.273 2.9455C1.17892 2.89757 1.10243 2.82108 1.0545 2.727C1 2.62004 1 2.48003 1 2.2V1.8Z"/><path d="M1 13.8C1 13.52 1 13.38 1.0545 13.273C1.10243 13.1789 1.17892 13.1024 1.273 13.0545C1.37996 13 1.51997 13 1.8 13H14.2C14.48 13 14.62 13 14.727 13.0545C14.8211 13.1024 14.8976 13.1789 14.9455 13.273C15 13.38 15 13.52 15 13.8V14.2C15 14.48 15 14.62 14.9455 14.727C14.8976 14.8211 14.8211 14.8976 14.727 14.9455C14.62 15 14.48 15 14.2 15H1.8C1.51997 15 1.37996 15 1.273 14.9455C1.17892 14.8976 1.10243 14.8211 1.0545 14.727C1 14.62 1 14.48 1 14.2V13.8Z"/><path d="M1 9.8C1 9.51997 1 9.37996 1.0545 9.273C1.10243 9.17892 1.17892 9.10243 1.273 9.0545C1.37996 9 1.51997 9 1.8 9H14.2C14.48 9 14.62 9 14.727 9.0545C14.8211 9.10243 14.8976 9.17892 14.9455 9.273C15 9.37996 15 9.51997 15 9.8V10.2C15 10.48 15 10.62 14.9455 10.727C14.8976 10.8211 14.8211 10.8976 14.727 10.9455C14.62 11 14.48 11 14.2 11H1.8C1.51997 11 1.37996 11 1.273 10.9455C1.17892 10.8976 1.10243 10.8211 1.0545 10.727C1 10.62 1 10.48 1 10.2V9.8Z"/><path d="M1 5.8C1 5.51997 1 5.37996 1.0545 5.273C1.10243 5.17892 1.17892 5.10243 1.273 5.0545C1.37996 5 1.51997 5 1.8 5H14.2C14.48 5 14.62 5 14.727 5.0545C14.8211 5.10243 14.8976 5.17892 14.9455 5.273C15 5.37996 15 5.51997 15 5.8V6.2C15 6.48003 15 6.62004 14.9455 6.727C14.8976 6.82108 14.8211 6.89757 14.727 6.9455C14.62 7 14.48 7 14.2 7H1.8C1.51997 7 1.37996 7 1.273 6.9455C1.17892 6.89757 1.10243 6.82108 1.0545 6.727C1 6.62004 1 6.48003 1 6.2V5.8Z"/></symbol><symbol id="grid" fill="#6B6F76" viewBox="0 0 16 16"><path d="M1 2.6C1 2.03995 1 1.75992 1.10899 1.54601C1.20487 1.35785 1.35785 1.20487 1.54601 1.10899C1.75992 1 2.03995 1 2.6 1H5.4C5.96005 1 6.24008 1 6.45399 1.10899C6.64215 1.20487 6.79513 1.35785 6.89101 1.54601C7 1.75992 7 2.03995 7 2.6V3.4C7 3.96005 7 4.24008 6.89101 4.45399C6.79513 4.64215 6.64215 4.79513 6.45399 4.89101C6.24008 5 5.96005 5 5.4 5H2.6C2.03995 5 1.75992 5 1.54601 4.89101C1.35785 4.79513 1.20487 4.64215 1.10899 4.45399C1 4.24008 1 3.96005 1 3.4V2.6Z"/><path d="M9 2.6C9 2.03995 9 1.75992 9.10899 1.54601C9.20487 1.35785 9.35785 1.20487 9.54601 1.10899C9.75992 1 10.0399 1 10.6 1H13.4C13.9601 1 14.2401 1 14.454 1.10899C14.6422 1.20487 14.7951 1.35785 14.891 1.54601C15 1.75992 15 2.03995 15 2.6V3.4C15 3.96005 15 4.24008 14.891 4.45399C14.7951 4.64215 14.6422 4.79513 14.454 4.89101C14.2401 5 13.9601 5 13.4 5H10.6C10.0399 5 9.75992 5 9.54601 4.89101C9.35785 4.79513 9.20487 4.64215 9.10899 4.45399C9 4.24008 9 3.96005 9 3.4V2.6Z"/><path d="M1 7.6C1 7.03995 1 6.75992 1.10899 6.54601C1.20487 6.35785 1.35785 6.20487 1.54601 6.10899C1.75992 6 2.03995 6 2.6 6H5.4C5.96005 6 6.24008 6 6.45399 6.10899C6.64215 6.20487 6.79513 6.35785 6.89101 6.54601C7 6.75992 7 7.03995 7 7.6V8.4C7 8.96005 7 9.24008 6.89101 9.45399C6.79513 9.64215 6.64215 9.79513 6.45399 9.89101C6.24008 10 5.96005 10 5.4 10H2.6C2.03995 10 1.75992 10 1.54601 9.89101C1.35785 9.79513 1.20487 9.64215 1.10899 9.45399C1 9.24008 1 8.96005 1 8.4V7.6Z"/><path d="M9 7.6C9 7.03995 9 6.75992 9.10899 6.54601C9.20487 6.35785 9.35785 6.20487 9.54601 6.10899C9.75992 6 10.0399 6 10.6 6H13.4C13.9601 6 14.2401 6 14.454 6.10899C14.6422 6.20487 14.7951 6.35785 14.891 6.54601C15 6.75992 15 7.03995 15 7.6V8.4C15 8.96005 15 9.24008 14.891 9.45399C14.7951 9.64215 14.6422 9.79513 14.454 9.89101C14.2401 10 13.9601 10 13.4 10H10.6C10.0399 10 9.75992 10 9.54601 9.89101C9.35785 9.79513 9.20487 9.64215 9.10899 9.45399C9 9.24008 9 8.96005 9 8.4V7.6Z"/><path d="M1 12.6C1 12.0399 1 11.7599 1.10899 11.546C1.20487 11.3578 1.35785 11.2049 1.54601 11.109C1.75992 11 2.03995 11 2.6 11H5.4C5.96005 11 6.24008 11 6.45399 11.109C6.64215 11.2049 6.79513 11.3578 6.89101 11.546C7 11.7599 7 12.0399 7 12.6V13.4C7 13.9601 7 14.2401 6.89101 14.454C6.79513 14.6422 6.64215 14.7951 6.45399 14.891C6.24008 15 5.96005 15 5.4 15H2.6C2.03995 15 1.75992 15 1.54601 14.891C1.35785 14.7951 1.20487 14.6422 1.10899 14.454C1 14.2401 1 13.9601 1 13.4V12.6Z"/><path d="M9 12.6C9 12.0399 9 11.7599 9.10899 11.546C9.20487 11.3578 9.35785 11.2049 9.54601 11.109C9.75992 11 10.0399 11 10.6 11H13.4C13.9601 11 14.2401 11 14.454 11.109C14.6422 11.2049 14.7951 11.3578 14.891 11.546C15 11.7599 15 12.0399 15 12.6V13.4C15 13.9601 15 14.2401 14.891 14.454C14.7951 14.6422 14.6422 14.7951 14.454 14.891C14.2401 15 13.9601 15 13.4 15H10.6C10.0399 15 9.75992 15 9.54601 14.891C9.35785 14.7951 9.20487 14.6422 9.10899 14.454C9 14.2401 9 13.9601 9 13.4V12.6Z"/></symbol><symbol id="circle" width="14" height="14" fill="none" aria-label="Set issue status…" viewBox="0 0 14 14"><rect width="12" height="12" x="1" y="1" fill="none" stroke="currentColor" stroke-width="2" rx="6"/><path fill="currentColor" stroke="none" d="M 3.5,3.5 L3.5,0 A3.5,3.5 0 0,1 3.5, 0 z" transform="translate(3.5,3.5)"/></symbol><symbol id="pie-1/4" width="14" height="14" fill="none" viewBox="0 0 14 14"><rect width="12" height="12" x="1" y="1" fill="none" stroke="currentColor" rx="6" strokeWidth="2"/><path fill="currentColor" stroke="none" d="M 3.5,3.5 L3.5,0 A3.5,3.5 0 0,1 7, 3.5 z" transform="translate(3.5,3.5)"/></symbol><symbol id="pie-1/2" width="14" height="14" fill="none" viewBox="0 0 14 14"><rect width="12" height="12" x="1" y="1" fill="none" stroke="currentColor" rx="6" strokeWidth="2"/><path fill="currentColor" stroke="none" d="M 3.5,3.5 L3.5,0 A3.5,3.5 0 0,1 3.5, 7 z" transform="translate(3.5,3.5)"/></symbol><symbol id="pie-3/4" width="14" height="14" fill="none" viewBox="0 0 14 14"><rect width="12" height="12" x="1" y="1" fill="none" stroke="currentColor" stroke-width="2" rx="6"/><path fill="currentColor" stroke="none" d="M 3.5,3.5 L3.5,0 A3.5,3.5 0 1,1 0, 3.5 z" transform="translate(3.5,3.5)"/></symbol><symbol id="check" width="14" height="14" viewBox="0 0 14 14"><path fill="currentColor" stroke="currentColor" d="M9.54541 3.54541L9.89896 3.89896L9.54541 3.54541L5.5 7.59081L4.45459 6.54541C3.92739 6.0182 3.07261 6.0182 2.54541 6.54541C2.0182 7.07261 2.0182 7.92739 2.54541 8.45459L4.54541 10.4546C5.07261 10.9818 5.92739 10.9818 6.45459 10.4546L11.4546 5.45459C11.9818 4.92739 11.9818 4.07261 11.4546 3.54541L11.101 3.89896L11.4546 3.54541C10.9274 3.0182 10.0726 3.0182 9.54541 3.54541ZM0.5 7C0.5 3.41015 3.41015 0.5 7 0.5C10.5899 0.5 13.5 3.41015 13.5 7C13.5 10.5899 10.5899 13.5 7 13.5C3.41015 13.5 0.5 10.5899 0.5 7Z"/></symbol></svg>